<mxfile host="app.diagrams.net" modified="2021-01-09T09:55:37.491Z" agent="5.0 (Macintosh; Intel Mac OS X 10_15_7) AppleWebKit/537.36 (KHTML, like Gecko) Chrome/87.0.4280.88 Safari/537.36" etag="NetBxfCK7NYqs8_zSzlC" version="14.1.8" type="github">
  <diagram id="RwfgV291KNw7QB9GOFKt" name="Page-1">
    <mxGraphModel dx="2148" dy="810" grid="1" gridSize="10" guides="1" tooltips="1" connect="1" arrows="1" fold="1" page="1" pageScale="1" pageWidth="850" pageHeight="1100" math="0" shadow="0">
      <root>
        <mxCell id="0" />
        <mxCell id="1" parent="0" />
        <mxCell id="96JQ_g-VHkedRMkezLmy-2" style="edgeStyle=orthogonalEdgeStyle;rounded=0;orthogonalLoop=1;jettySize=auto;html=1;" edge="1" parent="1" source="96JQ_g-VHkedRMkezLmy-1" target="96JQ_g-VHkedRMkezLmy-3">
          <mxGeometry relative="1" as="geometry">
            <mxPoint x="-530" y="210" as="targetPoint" />
          </mxGeometry>
        </mxCell>
        <mxCell id="96JQ_g-VHkedRMkezLmy-1" value="" style="shape=cylinder3;whiteSpace=wrap;html=1;boundedLbl=1;backgroundOutline=1;size=15;" vertex="1" parent="1">
          <mxGeometry x="-770" y="120" width="70" height="90" as="geometry" />
        </mxCell>
        <mxCell id="96JQ_g-VHkedRMkezLmy-3" value="" style="shape=cylinder3;whiteSpace=wrap;html=1;boundedLbl=1;backgroundOutline=1;size=15;" vertex="1" parent="1">
          <mxGeometry x="-560" y="170" width="60" height="80" as="geometry" />
        </mxCell>
      </root>
    </mxGraphModel>
  </diagram>
</mxfile>
